<?xml version="1.0" encoding="UTF-8" standalone="no"?>
<!DOCTYPE svg PUBLIC "-//W3C//DTD SVG 1.1//EN" "http://www.w3.org/Graphics/SVG/1.1/DTD/svg11.dtd">
<svg xmlns="http://www.w3.org/2000/svg" xmlns:xlink="http://www.w3.org/1999/xlink" version="1.1" width="616.8pt" height="607.2pt" viewBox="0 0 616.8 607.2">
<g enable-background="new">
<clipPath id="cp0">
<path transform="matrix(1,0,0,-1,0,1080)" d="M 0 0 L 1920 0 L 1920 1080 L 0 1080 Z "/>
</clipPath>
<g clip-path="url(#cp0)">
<clipPath id="cp1">
<path transform="matrix(1,0,0,-1,0,1080)" d="M 0 0 L 1920 0 L 1920 1080 L 0 1080 Z "/>
</clipPath>
<g clip-path="url(#cp1)">
<path transform="matrix(1,0,0,-1,0,1080)" d="M 0 1080 L 1920 1080 L 1920 0 L 0 0 Z " fill="#ffffff"/>
<g id="Layer-1" data-name="P">
</g>
<clipPath id="cp2">
<path transform="matrix(1,0,0,-1,0,1080)" d="M 94.75508 561.573 L 524.5716 561.573 L 524.5716 991.3895 L 94.75508 991.3895 Z "/>
</clipPath>
<g clip-path="url(#cp2)">
<path transform="matrix(1,0,0,-1,0,1080)" d="M 309.6633 990.3895 C 191.7143 990.3895 95.75512 894.4303 95.75508 776.4813 C 95.75508 658.5323 191.7143 562.573 309.6633 562.573 C 427.6123 562.573 523.5715 658.5323 523.5716 776.4813 C 523.5716 894.4303 427.6123 990.3896 309.6633 990.3895 Z M 333.2935 971.8062 C 375.4591 966.7388 413.5304 948.2943 443.1889 920.8359 C 430.4324 909.0196 416.3733 899.0598 401.3431 891.1227 C 399.65 894.3335 397.9017 897.5114 396.0622 900.6483 C 379.9078 928.2072 358.5208 952.4027 333.2935 971.8062 Z M 285.0973 971.706 C 259.9321 952.3216 238.5857 928.1548 222.4623 900.6483 C 220.6868 897.6205 218.9881 894.5533 217.3485 891.457 C 202.5547 899.3373 188.7145 909.1907 176.1378 920.8359 C 205.5726 948.0836 243.3135 966.477 285.0973 971.706 Z M 301.0736 962.2472 L 301.0736 868.7626 C 277.2741 869.7766 254.2443 874.9868 232.8235 884.0704 C 234.2438 886.7304 235.707 889.3852 237.2353 891.9917 C 253.4121 919.5891 275.2377 943.5516 301.0736 962.2472 Z M 318.2531 961.6456 C 343.7317 943.0377 365.25 919.2972 381.2557 891.9917 C 382.8397 889.289 384.3673 886.5301 385.8347 883.7696 C 364.6075 874.8614 341.8204 869.7648 318.2531 868.7626 L 318.2531 961.6456 Z M 164.0386 908.6365 C 177.9833 895.6512 193.3649 884.7236 209.8283 876.0155 C 197.1618 847.4159 190.0218 816.5163 188.872 785.0376 L 113.1017 785.0376 C 115.1477 832.5028 134.0775 875.6593 164.0386 908.6365 Z M 455.288 908.6365 C 485.2469 875.6593 504.179 832.5017 506.2249 785.0376 L 429.6525 785.0376 C 428.507 816.388 421.3991 847.1791 408.8298 875.6812 C 425.5393 884.4461 441.1561 895.4736 455.288 908.6365 Z M 225.3033 868.6289 C 249.0449 858.4416 274.6312 852.6195 301.0736 851.5831 L 301.0736 785.0376 L 206.0515 785.0376 C 207.1863 813.9527 213.7255 842.3354 225.3033 868.6289 Z M 393.3215 868.3281 C 404.8159 842.1201 411.3425 813.8415 412.473 785.0376 L 318.2531 785.0376 L 318.2531 851.5831 C 344.4579 852.6077 369.7787 858.3247 393.3215 868.3281 Z M 113.1017 767.8915 L 188.8386 767.8915 C 189.8889 735.9037 197.15 704.4488 210.0957 675.4096 C 193.859 666.849 178.6411 656.1416 164.8408 643.4237 C 134.4112 676.5131 115.1659 720.0007 113.1017 767.8915 Z M 206.0181 767.8915 L 301.0736 767.8915 L 301.0736 699.7083 C 274.7297 698.6762 249.2396 692.8795 225.5706 682.7627 C 213.7094 709.5023 207.0566 738.4577 206.0181 767.8915 Z M 318.2531 767.8915 L 412.5064 767.8915 C 411.4721 738.569 404.8298 709.7521 393.0541 683.097 C 369.5863 693.0309 344.3585 698.6869 318.2531 699.7083 L 318.2531 767.8915 Z M 429.6859 767.8915 L 506.2249 767.8915 C 504.1607 720.0028 484.9111 676.512 454.4859 643.4237 C 440.4984 656.3191 425.0797 667.1266 408.5959 675.7439 C 421.4443 704.6856 428.6398 736.032 429.6859 767.8915 Z M 301.0736 682.5288 L 301.0736 589.7795 C 274.5329 608.9917 252.2006 633.7839 235.9318 662.2743 C 234.9724 663.9546 234.0398 665.652 233.1243 667.3546 C 254.4584 676.3602 277.3886 681.5202 301.0736 682.5288 Z M 318.2531 682.5288 C 341.707 681.5309 364.3933 676.4856 385.5339 667.6555 C 384.5681 665.8522 383.5742 664.052 382.5592 662.2743 C 366.4573 634.0759 344.4366 609.511 318.2531 590.3811 L 318.2531 682.5288 Z M 401.0757 660.3024 C 415.8674 652.5225 429.7174 642.8249 442.3199 631.2911 C 413.1118 604.5771 375.87 586.5351 334.6638 581.29 C 360.0355 601.0969 381.4742 625.7455 397.466 653.7514 C 398.7024 655.9172 399.9078 658.1024 401.0757 660.3024 Z M 217.6159 659.9681 C 218.7283 657.8815 219.8841 655.807 221.0585 653.7514 C 237.0139 625.8107 258.3999 601.2071 283.6935 581.4237 C 242.8841 586.8291 205.9807 604.7952 177.0068 631.2911 C 189.4295 642.6571 203.0594 652.2461 217.6159 659.9681 Z M 217.6159 659.9681 " fill="#0076ba"/>
</g>
<g id="Layer-1" data-name="P">
</g>
<clipPath id="cp3">
<path transform="matrix(1,0,0,-1,0,1080)" d="M 216.4364 741.9944 L 402.89033 741.9944 L 402.89033 810.9681 L 216.4364 810.9681 Z "/>
</clipPath>
<g clip-path="url(#cp3)">
<path transform="matrix(1,0,0,-1,0,1080)" d="M 217.4364 742.9944 L 401.89033 742.9944 L 401.89033 809.9681 L 217.4364 809.9681 Z " fill="#0076ba"/>
</g>
<g id="Layer-1" data-name="P">
</g>
<g id="Layer-1" data-name="P">
</g>
<clipPath id="cp4">
<path transform="matrix(1,0,0,-1,0,1080)" d="M 230.4986 743.6493 L 388.828 743.6493 L 388.828 807.61917 L 230.4986 807.61917 Z "/>
</clipPath>
<g clip-path="url(#cp4)">
<text fill="#ffffff" xml:space="preserve" transform="matrix(1 0 -0 1 240.9836 317.18989)" font-size="36" font-family="Helvetica Neue"><tspan y="0" x="0 25.992003 46.656003 54.648004 73.98 95.328 115.992008 123.98401">ColabFit</tspan></text>
</g>
<g id="Layer-1" data-name="P">
</g>
<clipPath id="cp5">
<path transform="matrix(1,0,0,-1,0,1080)" d="M 413.6427 513.1425 L 608.8397 513.1425 L 608.8397 1020.1389 L 413.6427 1020.1389 Z "/>
</clipPath>
<g clip-path="url(#cp5)">
<path transform="matrix(1,0,0,1,428.5485,85.741397)" stroke-width="60" stroke-linecap="butt" stroke-miterlimit="4" stroke-linejoin="miter" fill="none" stroke="#f27200" d="M 40.72748 0 C 77.21133 24.57695 106.4011 58.52445 125.1611 98.31339 C 142.6393 135.3835 150.5091 175.929 149.1389 216.4174 C 145.7507 316.5415 88.7739 407.1063 0 453.5337 "/>
</g>
<g id="Layer-1" data-name="P">
</g>
<clipPath id="cp6">
<path transform="matrix(1,0,0,-1,0,1080)" d="M 103.2591 715.2871 L -30.3474 892.5889 L 358.3901 1185.524 L 491.9966 1008.222 Z "/>
</clipPath>
<g clip-path="url(#cp6)">
<clipPath id="cp7">
<path transform="matrix(1,0,0,-1,0,1080)" d="M 0 0 L 1920 0 L 1920 1080 L 0 1080 Z "/>
</clipPath>
<g clip-path="url(#cp7)">
<path transform="matrix(-.601815,-.7986355,.7986355,-.601815,112.6611,342.8507)" stroke-width="60" stroke-linecap="butt" stroke-miterlimit="4" stroke-linejoin="miter" fill="none" stroke="#f27200" d="M 115.2401 0 C 132.5577 19.94877 146.6288 42.49808 156.9371 66.82075 C 218.6436 212.4185 147.5377 380.1859 0 437.0984 "/>
</g>
<g id="Layer-1" data-name="P">
</g>
</g>
<clipPath id="cp8">
<path transform="matrix(1,0,0,-1,0,1080)" d="M 434.138 506.8403 L 161.6109 379.7589 L -35.26606 801.9629 L 237.261 929.0444 Z "/>
</clipPath>
<g clip-path="url(#cp8)">
<clipPath id="cp9">
<path transform="matrix(1,0,0,-1,0,1080)" d="M 0 0 L 1920 0 L 1920 1080 L 0 1080 Z "/>
</clipPath>
<g clip-path="url(#cp9)">
<path transform="matrix(-.9063078,.4226183,-.4226183,-.9063078,420.0117,545.5502)" stroke-width="60" stroke-linecap="butt" stroke-miterlimit="4" stroke-linejoin="miter" fill="none" stroke="#f27200" d="M 0 .01015334 C 102.44 -.4609664 196.1521 57.61438 241.319 149.5607 C 283.5949 235.6217 276.2725 337.7767 222.1541 416.9282 "/>
</g>
</g>
</g>
</g>
</g>
</svg>
